<svg width="619" height="263" viewBox="0 0 619 263" fill="none" xmlns="http://www.w3.org/2000/svg">
<path d="M467.395 83.6277C466.856 83.5034 467.258 84.3118 467.258 84.3118C468.582 84.9326 491.889 92.852 491.827 102.862C491.805 106.41 491.762 108.634 488.56 111.312C482.764 116.158 472.512 114.964 460.853 115.753C447.642 116.648 438.109 113.72 425.108 114.882C414.834 115.8 406.251 115.231 401.061 119.57C397.072 122.906 394.918 125.611 397.433 130.226C400.792 136.389 408.591 139.915 419.373 143.798C427.451 146.707 434.131 148.111 442.868 149.603C487.841 157.284 502.487 130.567 547.082 140.361C564.962 144.288 578.523 145.831 590.389 155.037C600.383 162.791 601.998 167.882 599.818 175.52C597.465 183.763 586.448 185.304 575.894 190.557C562.562 197.193 548.463 197.176 537.171 204.834C530.665 209.247 525.537 211.578 524.145 217.647C523.183 221.841 524.264 224.551 526.335 229.101C530.875 239.072 553.23 255.422 553.23 255.422L555.946 253.589C555.946 253.589 534.632 239.283 529.998 229.467C527.987 225.207 526.796 222.651 527.666 218.719C528.993 212.725 534.774 210.685 541.34 206.403C552.803 198.928 566.308 198.666 579.345 191.982C590.095 186.47 601.162 184.709 603.478 176.166C605.593 168.365 602.988 162.208 592.859 154.299C581.024 145.059 565.403 142.463 545.999 138.308C501.341 128.746 486.678 155.943 441.784 147.551C433.33 145.97 428.088 145.468 420.374 142.53C411.035 138.972 403.912 136.011 401.096 130.592C399.102 126.757 400.092 124.459 402.917 121.497C407.589 116.598 416.453 116.673 427.253 115.635C439.053 114.501 447.774 117.296 459.984 116.697C472.563 116.079 483.685 117.529 489.918 112.393C493.437 109.494 493.377 107.03 493.264 103.15C492.969 93.0453 471.435 85.148 467.395 83.6277Z" fill="#DDDDDD"/>
<path d="M467.395 83.6277C467.918 83.7868 467.258 84.3118 467.258 84.3118C467.258 84.3118 426.843 68.7272 407.99 73.5325C401.309 75.2356 397.133 76.3226 393.61 79.7425C387.234 85.9319 394.381 92.2329 398.457 100.421C403.075 109.699 413.148 114.693 417.162 123.957C420.335 131.278 425.506 136.758 419.797 142.301C415.408 146.561 411.333 149.291 401.427 149.802C388.198 150.485 377.824 146.937 365.353 141.56C356.009 137.532 350.171 133.724 343.186 128.58C307.23 102.1 350.638 79.5733 310.876 54.3526C294.935 44.2407 285.551 35.8887 262.522 32.3187C243.123 29.3117 232.749 30.6528 219.381 35.7479C204.954 41.2469 207.305 49.3621 202.434 58.9333C196.28 71.0248 203.042 80.4632 193.985 91.6738C188.767 98.133 186.816 102.678 176.032 106.499C168.58 109.139 162.952 109.705 153.381 110.482C132.404 112.185 90.8895 104.986 90.8895 104.986L93.0502 102.294C93.0502 102.294 130.212 109.768 150.942 108.202C159.938 107.522 165.328 107.104 172.329 104.65C183.003 100.909 184.093 96.064 189.035 89.627C197.664 78.3894 191.712 69.2156 198.098 57.2994C203.364 47.4733 201.405 39.2197 216.415 33.6027C230.121 28.4736 242.979 27.2896 262.733 30.313C285.814 33.8454 298.166 43.0771 315.266 54.1017C354.62 79.4746 310.316 102.242 347.576 128.329C354.592 133.241 358.042 136.515 367.267 140.286C378.435 144.85 387.422 148.214 398.988 147.523C407.175 147.033 411.037 145.277 415.276 141.974C422.288 136.513 417.915 130.609 414.718 122.878C411.224 114.432 401.789 109.919 397.092 101.452C392.253 92.7297 384.208 85.9674 390.921 79.3468C394.71 75.6096 399.389 74.4772 406.762 72.7067C425.964 68.0959 463.982 82.5887 467.395 83.6277Z" fill="#DDDDDD"/>
<path d="M142.017 126.082C142.017 126.082 132.426 130.281 130.606 145.115C130.119 149.476 132.277 152.698 135.368 155.762C138.531 159.024 143.215 159.035 146.045 162.373C144.089 159.213 144.66 155.452 141.315 152.93C146.308 154.539 148.886 158.419 149.553 163.486C150.149 168.354 152.308 171.576 157.674 172.105C154.94 169.902 155.864 166.867 155.986 163.853C156.279 167.391 158.999 169.059 162.096 169.781C165.868 170.753 167.501 171.781 170.386 174.649C168.912 169.469 171.448 166.659 165.162 164.215C161.715 162.9 157.904 160.457 160.669 156.17C161.602 163.706 167.896 161.333 172.975 163.675C176.566 165.388 175.837 168.217 177.848 170.907C179.859 173.598 183.35 174.042 186.494 174.026C181.237 172.558 182.554 166.636 181.307 162.454C179.908 157.606 173.524 156.502 170.867 152.156C173.241 148.28 175.572 152.969 176.55 154.55C178.153 156.983 180.221 159.338 183.667 158.043C175.57 155.445 181.068 145.667 175.213 141.806C172.966 140.326 167.272 142.616 166.132 139.969C164.354 135.935 171.367 138.026 172.866 139.057C172.474 136.859 170.745 134.697 168.577 133.683C165.799 132.351 163.839 134.142 161.418 133.67C158.191 133.085 157.884 129.012 161.494 128.918C162.831 128.883 165.634 131.151 167.253 131.644C165.272 127.547 160.422 123.727 155.981 122.773C150.463 121.579 146.648 124.088 142.017 126.082Z" fill="url(#paint0_linear_5_48)"/>
<path d="M139.345 131.267C138.381 132.35 138.449 132.414 137.564 133.822C135.669 136.77 135.294 141.034 138.13 143.476C139.749 144.825 141.654 144.447 143.386 145.404C145.218 146.393 145.302 148.409 146.278 149.959C146.362 148.853 146.358 147.975 146.606 146.899C146.709 146.247 146.874 145.53 146.621 144.915C147.32 146.078 147.443 147.443 148.207 148.605C149.178 150.026 150.629 150.466 152.212 150.97C153.827 151.441 155.397 151.619 157.154 151.6C157.869 151.593 158.806 151.42 159.468 151.673C160.33 152.055 160.657 152.864 161.332 153.443C160.945 151.202 160.8 150.066 158.43 149.44C155.996 148.816 155.875 146.703 154.282 145.191C155.652 146.055 157.394 146.459 158.328 144.66C155.438 145.602 154.242 143.468 153.845 140.968C153.419 138.565 153.493 136.451 151.535 134.78C152.738 134.735 153.344 135.997 154.09 136.705C154.968 137.476 155.958 137.791 157.106 138.006C156.971 137.877 156.77 137.749 156.699 137.62C156.243 136.812 155.406 136.268 154.949 135.46C154.526 134.683 154.267 133.938 153.94 133.129C153.287 131.509 151.6 130.096 150.131 129.201C147.692 127.698 143.221 128.201 140.317 130.378L140.034 130.609C139.782 130.807 139.563 131.037 139.345 131.267Z" fill="#FFC929"/>
<path d="M138.512 132.15C137.47 133.389 137.319 134.394 137.355 136.015C137.412 137.824 139.078 139.102 140.26 140.291C139.972 139.747 140.047 139.21 139.982 138.608C140.618 139.314 141.216 139.037 141.932 139.446C142.683 139.889 143.083 140.808 143.783 141.27C143.455 140.487 144.334 139.666 143.766 138.959C144.532 139.246 144.259 140.203 144.787 140.67C145.244 141.07 146.248 141.247 146.755 141.525C146.699 141.337 145.364 139.462 146.376 139.984C146.568 140.099 146.739 140.801 147.02 141.034C147.265 141.199 147.63 141.308 147.924 141.386C148.601 141.555 149.287 141.396 149.898 141.705C150.595 142.063 150.938 142.726 151.297 143.405C150.908 142.157 151.149 141.339 150.061 140.51C149.534 140.077 149.319 139.704 148.945 139.181C148.625 138.742 148.207 138.548 147.784 138.147C149.122 137.795 149.378 139.254 150.489 139.565C149.857 139.067 150.048 138.337 149.844 137.67C149.622 137.021 149.074 136.4 148.43 136.126C147.96 135.916 146.739 136.108 146.809 135.33C146.875 134.414 148.179 134.909 148.565 135.208C148.326 134.542 147.777 133.886 146.997 133.72C146.322 133.585 145.64 133.951 145.312 133.167C145.881 132.357 146.692 133.16 147.467 133.119C146.361 132.239 145.854 130.339 144.12 130.685C143.656 130.786 142.541 131.855 142.472 131.046C142.423 130.392 143.585 129.908 144.087 129.979C142.4 129.357 139.993 130.483 138.731 131.919L138.512 132.15Z" fill="#F9F079"/>
<path d="M148.082 113.928C149.479 116.274 150.779 118.542 151.997 120.718C153.214 122.893 148.682 130.102 144.002 135.022C139.36 139.903 130.679 146.646 128.441 145.543C126.203 144.44 123.872 143.26 121.455 141.99L148.082 113.928Z" fill="url(#paint1_linear_5_48)"/>
<path d="M79.5145 118.085C51.0008 99.811 22.4202 75.5167 9.08662 41.0898L41.4284 7.00515C76.5028 18.5166 102.268 45.7808 122.01 73.3L140.964 102.189C142.705 105.031 144.371 107.776 145.991 110.466L117.887 140.084C115.119 138.605 112.283 137.087 109.358 135.498L79.5145 118.085ZM44.2819 42.1019C40.6077 46.1286 40.745 52.3003 44.6451 56.001C48.5408 59.6974 54.7201 59.5194 58.5471 55.6377C62.2242 51.6109 62.0766 45.4322 58.1809 41.7357C54.2808 38.0351 48.1118 38.2201 44.2819 42.1019Z" fill="url(#paint2_linear_5_48)"/>
<path d="M106.496 143.296L109.359 135.499L79.5149 118.086C80.5823 123.759 82.289 146.299 82.289 146.299L116.225 174.674L122.462 168.101L106.496 143.296Z" fill="url(#paint3_linear_5_48)"/>
<path d="M150.329 74.5933C150.329 74.5933 127.734 74.0665 122.01 73.301L140.965 102.19L148.601 98.9235L174.208 113.566L180.444 106.994L150.329 74.5933Z" fill="url(#paint4_linear_5_48)"/>
<path d="M7.62798 36.9532C3.96537 25.9845 -0.337942 0.410923 0.0210043 0.0326326C0.382766 -0.348625 26.0708 2.68779 37.215 5.77165L7.62798 36.9532Z" fill="url(#paint5_linear_5_48)"/>
<path d="M148.082 113.928L121.455 141.99L117.887 140.084L145.991 110.467L148.082 113.928Z" fill="url(#paint6_linear_5_48)"/>
<path d="M41.429 7.00619L9.08725 41.0909L7.62752 36.9541L37.2146 5.77257L41.429 7.00619Z" fill="url(#paint7_linear_5_48)"/>
<path d="M44.6447 56.001C40.7446 52.3003 40.6072 46.1285 44.2814 42.1018C48.1113 38.22 54.2804 38.035 58.1805 41.7357C62.0761 45.4322 62.2238 51.6109 58.5467 55.6376C54.7197 59.5194 48.5403 59.6974 44.6447 56.001Z" fill="url(#paint8_linear_5_48)"/>
<defs>
<linearGradient id="paint0_linear_5_48" x1="186.494" y1="174.039" x2="130.688" y2="122.016" gradientUnits="userSpaceOnUse">
<stop stop-color="#F67C01"/>
<stop offset="1" stop-color="#BB5E00"/>
</linearGradient>
<linearGradient id="paint1_linear_5_48" x1="93.3546" y1="38.4316" x2="39.7304" y2="94.9455" gradientUnits="userSpaceOnUse">
<stop offset="0.213542" stop-color="#D2CECE"/>
<stop offset="1" stop-color="#393535"/>
</linearGradient>
<linearGradient id="paint2_linear_5_48" x1="93.3546" y1="38.4316" x2="39.7304" y2="94.9455" gradientUnits="userSpaceOnUse">
<stop offset="0.213542" stop-color="#D2CECE"/>
<stop offset="1" stop-color="#393535"/>
</linearGradient>
<linearGradient id="paint3_linear_5_48" x1="113.002" y1="130.91" x2="87.3074" y2="157.989" gradientUnits="userSpaceOnUse">
<stop stop-color="#404040"/>
<stop offset="1"/>
</linearGradient>
<linearGradient id="paint4_linear_5_48" x1="136.463" y1="106.185" x2="164.392" y2="76.7507" gradientUnits="userSpaceOnUse">
<stop/>
<stop offset="1" stop-color="#7A7A7A"/>
</linearGradient>
<linearGradient id="paint5_linear_5_48" x1="34.968" y1="0.930228" x2="0.33577" y2="37.4288" gradientUnits="userSpaceOnUse">
<stop stop-color="#8C8B8B"/>
<stop offset="1"/>
</linearGradient>
<linearGradient id="paint6_linear_5_48" x1="154.699" y1="101.114" x2="107.778" y2="150.564" gradientUnits="userSpaceOnUse">
<stop offset="0.1875" stop-color="white"/>
<stop offset="1" stop-color="#393535"/>
</linearGradient>
<linearGradient id="paint7_linear_5_48" x1="45.2634" y1="-0.487924" x2="-1.65776" y2="48.9618" gradientUnits="userSpaceOnUse">
<stop offset="0.135417" stop-color="white"/>
<stop offset="1" stop-color="#393535"/>
</linearGradient>
<linearGradient id="paint8_linear_5_48" x1="44.4738" y1="56.9359" x2="58.997" y2="41.63" gradientUnits="userSpaceOnUse">
<stop offset="0.0885417" stop-color="#212121"/>
<stop offset="1" stop-color="#606060"/>
</linearGradient>
</defs>
</svg>
